<svg xmlns="http://www.w3.org/2000/svg" width="300" height="169" viewBox="0 0 300 169"><rect width="100%" height="100%" fill="#DDDDDD"/><path fill="#999999" d="M64 82.78h2.21q.82 0 1.42-.2.61-.21 1.01-.59.4-.37.6-.92.2-.54.2-1.21 0-.64-.2-1.16t-.6-.88q-.39-.36-1-.56-.6-.19-1.43-.19H64zm-2.96-8h5.17q1.6 0 2.76.38 1.17.37 1.93 1.04t1.13 1.61q.36.93.36 2.05 0 1.15-.38 2.11-.39.97-1.16 1.66t-1.93 1.08q-1.16.38-2.71.38H64v5.6h-2.96zm13.22-.44h2.72v16.35h-2.72zm11.4 13.43v-1.9q-1.18.06-1.98.21-.8.14-1.29.38-.48.23-.69.53-.21.31-.21.68 0 .71.42 1.02.43.31 1.11.31.84 0 1.45-.31.61-.3 1.19-.92m-5.74-5.92-.49-.87q1.95-1.78 4.69-1.78.99 0 1.77.32t1.32.9.82 1.38q.28.81.28 1.76v7.13h-1.23q-.39 0-.6-.12-.2-.11-.32-.46l-.25-.82q-.43.39-.83.68-.41.29-.85.49t-.94.3q-.5.11-1.11.11-.71 0-1.32-.2-.6-.19-1.04-.57-.44-.39-.68-.96t-.24-1.33q0-.43.14-.85.14-.43.47-.81.32-.39.84-.73.51-.34 1.27-.59.75-.26 1.75-.42 1-.15 2.29-.19v-.66q0-1.13-.48-1.68-.49-.54-1.4-.54-.66 0-1.1.15-.43.16-.76.35t-.6.35q-.27.15-.6.15-.29 0-.48-.15-.2-.15-.32-.34m19.74-1.05-.71.99q-.12.16-.24.24-.11.09-.33.09-.21 0-.41-.13l-.47-.28q-.28-.16-.66-.29-.38-.12-.94-.12-.71 0-1.25.25-.54.26-.9.75-.36.48-.53 1.17-.18.69-.18 1.55 0 .91.19 1.61.2.71.56 1.18.36.48.88.73t1.16.25q.65 0 1.06-.16.4-.16.67-.35.28-.2.48-.36t.46-.16q.33 0 .49.26l.78.99q-.45.52-.98.88-.52.36-1.09.57-.57.22-1.17.31-.6.08-1.19.08-1.04 0-1.97-.39-.92-.39-1.62-1.13-.69-.75-1.09-1.84-.4-1.08-.4-2.47 0-1.24.36-2.3.35-1.06 1.05-1.84.69-.77 1.71-1.21 1.03-.44 2.36-.44 1.26 0 2.21.41.95.4 1.71 1.16m3.95 2.95h5.13q0-.53-.15-1-.15-.46-.45-.82-.29-.35-.75-.55t-1.06-.2q-1.18 0-1.85.67-.68.67-.87 1.9m6.93 1.64h-6.98q.06.87.31 1.5.24.63.63 1.04.4.42.94.62.55.2 1.21.2t1.14-.15q.47-.15.83-.34t.63-.34q.27-.16.52-.16.34 0 .51.26l.78.99q-.45.52-1.01.88t-1.17.57q-.62.22-1.25.31-.63.08-1.22.08-1.18 0-2.19-.39-1.02-.39-1.76-1.15-.75-.77-1.18-1.89-.43-1.13-.43-2.61 0-1.16.38-2.18.37-1.01 1.07-1.77.7-.75 1.7-1.19 1.01-.44 2.27-.44 1.07 0 1.97.34.91.34 1.55.99.65.66 1.02 1.61t.37 2.17q0 .62-.13.83-.13.22-.51.22m5.39-11.05v6.27q.66-.61 1.45-1 .8-.38 1.86-.38.93 0 1.64.31.72.32 1.2.88.47.57.72 1.35.25.79.25 1.74v7.18h-2.72v-7.18q0-1.04-.47-1.6-.47-.57-1.44-.57-.71 0-1.32.32-.62.32-1.17.87v8.16h-2.72V74.34zm14.69 4.89q1.25 0 2.28.41 1.03.4 1.76 1.15t1.13 1.83q.39 1.07.39 2.4 0 1.35-.39 2.43-.4 1.07-1.13 1.83t-1.76 1.17q-1.03.4-2.28.4-1.27 0-2.3-.4-1.04-.41-1.77-1.17t-1.13-1.83q-.4-1.08-.4-2.43 0-1.33.4-2.4.4-1.08 1.13-1.83t1.77-1.15q1.03-.41 2.3-.41m0 9.54q1.4 0 2.08-.95t.68-2.77q0-1.83-.68-2.79-.68-.95-2.08-.95-1.43 0-2.12.96t-.69 2.78q0 1.81.69 2.76.69.96 2.12.96m7.67-14.43h2.72v16.35h-2.72zm12.52 13.01v-5.06q-.46-.56-1-.8-.55-.23-1.18-.23-.61 0-1.11.23-.49.24-.84.7-.36.47-.54 1.19-.19.72-.19 1.7 0 .99.16 1.68t.46 1.12q.29.43.72.63.43.19.96.19.85 0 1.44-.35t1.12-1m0-13.01h2.72v16.35h-1.66q-.54 0-.68-.49l-.23-1.09q-.69.78-1.57 1.26-.89.48-2.06.48-.93 0-1.7-.38t-1.32-1.12q-.56-.73-.86-1.81-.3-1.07-.3-2.46 0-1.25.34-2.33t.98-1.87q.63-.79 1.52-1.24.9-.44 2.01-.44.94 0 1.61.29.67.3 1.2.81zm7.55 9.41h5.12q0-.53-.14-1-.15-.46-.45-.82-.3-.35-.75-.55-.46-.2-1.06-.2-1.18 0-1.86.67-.67.67-.86 1.9m6.93 1.64h-6.99q.07.87.31 1.5t.64 1.04q.4.42.94.62t1.2.2 1.14-.15.84-.34.63-.34q.27-.16.52-.16.34 0 .5.26l.79.99q-.46.52-1.02.88t-1.17.57q-.61.22-1.24.31-.63.08-1.23.08-1.17 0-2.19-.39-1.01-.39-1.76-1.15-.74-.77-1.17-1.89-.43-1.13-.43-2.61 0-1.16.37-2.18.38-1.01 1.07-1.77.7-.75 1.71-1.19t2.27-.44q1.07 0 1.97.34t1.55.99q.65.66 1.02 1.61t.37 2.17q0 .62-.14.83-.13.22-.5.22m5.07-5.3.16 1.27q.53-1.01 1.26-1.59.72-.57 1.71-.57.79 0 1.26.34l-.18 2.03q-.05.2-.16.28-.1.08-.28.08-.16 0-.49-.05-.32-.06-.63-.06-.45 0-.8.14-.35.13-.63.38-.29.24-.5.6-.21.35-.4.8v6.95h-2.72V79.4h1.6q.41 0 .58.15.16.15.22.54m14.55-5.31v15.91h-2.97V74.78zm5.84 15.91h-2.71V79.4h1.66q.53 0 .69.5l.18.83q.29-.33.62-.6.32-.27.69-.47t.79-.32q.43-.11.93-.11 1.07 0 1.76.58.69.57 1.03 1.53.26-.56.66-.96.39-.4.86-.66.48-.25 1.01-.37t1.07-.12q.94 0 1.67.28.72.29 1.22.84.49.55.75 1.34t.26 1.82v7.18h-2.72v-7.18q0-1.08-.47-1.63-.47-.54-1.39-.54-.42 0-.77.14-.36.15-.63.42-.27.26-.42.67-.16.41-.16.94v7.18h-2.73v-7.18q0-1.14-.45-1.65-.46-.52-1.34-.52-.59 0-1.1.29-.52.29-.96.8zm21.67-2.92v-1.9q-1.17.06-1.98.21-.8.14-1.28.38-.49.23-.7.53-.21.31-.21.68 0 .71.43 1.02.42.31 1.1.31.84 0 1.45-.31.61-.3 1.19-.92m-5.74-5.92-.48-.87q1.94-1.78 4.68-1.78.99 0 1.77.32.79.32 1.33.9.53.58.81 1.38.28.81.28 1.76v7.13h-1.23q-.38 0-.59-.12-.21-.11-.33-.46l-.24-.82q-.43.39-.84.68t-.85.49-.94.3q-.5.11-1.1.11-.72 0-1.32-.2-.61-.19-1.05-.57-.44-.39-.68-.96t-.24-1.33q0-.43.14-.85.14-.43.47-.81.32-.39.84-.73t1.27-.59q.75-.26 1.76-.42 1-.15 2.28-.19v-.66q0-1.13-.48-1.68-.48-.54-1.4-.54-.66 0-1.09.15-.44.16-.77.35t-.6.35q-.27.15-.6.15-.28 0-.48-.15t-.32-.34m15.07 2.92q.51 0 .88-.14.38-.13.62-.37.25-.25.38-.59.12-.34.12-.75 0-.83-.5-1.32t-1.5-.49-1.5.49-.5 1.32q0 .4.13.74.12.34.37.59t.63.38q.38.14.87.14m3.07 6.43q0-.33-.2-.54t-.54-.33q-.34-.11-.79-.17-.46-.05-.97-.08t-1.06-.05q-.54-.02-1.06-.09-.45.26-.73.6t-.28.79q0 .29.15.55t.47.45.84.29 1.27.1q.76 0 1.31-.11.55-.12.9-.32.36-.2.53-.48.16-.28.16-.61m-.54-11.41h3.25v1.01q0 .49-.59.6l-1.01.18q.23.58.23 1.28 0 .83-.33 1.51-.34.68-.93 1.15-.6.47-1.4.73-.81.26-1.75.26-.33 0-.64-.03-.3-.04-.6-.09-.53.32-.53.71 0 .35.31.5.32.16.83.23.52.07 1.18.08.66.02 1.35.07.7.06 1.36.2.66.13 1.17.43.52.3.84.81.31.51.31 1.31 0 .75-.37 1.46-.37.7-1.07 1.25t-1.71.89q-1.02.33-2.32.33-1.27 0-2.22-.25-.95-.24-1.57-.66-.63-.41-.94-.95t-.31-1.12q0-.79.48-1.33.48-.53 1.32-.85-.45-.23-.72-.61-.26-.39-.26-1.02 0-.25.09-.52t.28-.53q.18-.27.45-.5.28-.24.65-.43-.86-.46-1.35-1.23t-.49-1.8q0-.84.34-1.51.34-.68.94-1.16.59-.48 1.41-.73t1.79-.25q.73 0 1.37.14.63.15 1.16.44m7.11 3.96h5.12q0-.53-.14-1-.15-.46-.45-.82-.3-.35-.75-.55-.46-.2-1.07-.2-1.17 0-1.85.67t-.86 1.9m6.93 1.64h-6.99q.07.87.31 1.5t.64 1.04q.39.42.94.62.54.2 1.2.2t1.14-.15.84-.34.63-.34q.26-.16.52-.16.34 0 .5.26l.78.99q-.45.52-1.01.88t-1.17.57q-.61.22-1.24.31-.63.08-1.23.08-1.18 0-2.19-.39t-1.76-1.15q-.75-.77-1.17-1.89-.43-1.13-.43-2.61 0-1.16.37-2.18.37-1.01 1.07-1.77.7-.75 1.71-1.19 1-.44 2.27-.44 1.07 0 1.97.34t1.55.99q.65.66 1.02 1.61t.37 2.17q0 .62-.14.83-.13.22-.5.22"/></svg>